<svg width="720" height="1366" viewBox="0 0 720 1366" fill="none" xmlns="http://www.w3.org/2000/svg">
<g clip-path="url(#clip0_406_51)">
<rect width="1366" height="720" transform="matrix(0 -1 -1 0 720 1366)" fill="white"/>
<g opacity="0.22" filter="url(#filter0_f_406_51)">
<ellipse cx="337" cy="329" rx="337" ry="329" transform="matrix(0 -1 -1 0 730 674)" fill="#0062A9" fill-opacity="0.8"/>
</g>
<g opacity="0.2" filter="url(#filter1_f_406_51)">
<ellipse cx="165.5" cy="159" rx="165.5" ry="159" transform="matrix(0 -1 -1 0 181 1082)" fill="#0062A9"/>
</g>
<g opacity="0.4" filter="url(#filter2_f_406_51)">
<ellipse cx="116" cy="113" rx="116" ry="113" transform="matrix(0 -1 -1 0 200 534)" fill="#FD8C08"/>
</g>
<g opacity="0.18" filter="url(#filter3_f_406_51)">
<ellipse cx="190" cy="187.5" rx="190" ry="187.5" transform="matrix(0 -1 -1 0 629 1219)" fill="#ED8102"/>
</g>
<circle cx="25" cy="25" r="24.5" transform="matrix(0 -1 -1 0 150 203)" stroke="#F5F5F5" stroke-opacity="0.26"/>
<path d="M119.5 183.833L114.5 178.571L119.5 173" stroke="#F5F5F5" stroke-opacity="0.26"/>
<path d="M119.868 305.782C119.868 306.303 119.963 306.779 120.154 307.212C120.352 307.645 120.62 308.011 120.957 308.312C121.294 308.613 121.672 308.829 122.09 308.961L122.475 308.026C121.947 307.828 121.54 307.535 121.254 307.146C120.975 306.75 120.836 306.288 120.836 305.76C120.836 305.437 120.887 305.155 120.99 304.913C121.093 304.671 121.236 304.484 121.419 304.352C121.61 304.213 121.83 304.143 122.079 304.143C122.424 304.143 122.695 304.242 122.893 304.44C123.098 304.631 123.252 304.913 123.355 305.287L123.817 306.794C124 307.388 124.29 307.843 124.686 308.158C125.082 308.473 125.537 308.631 126.05 308.631C126.497 308.631 126.89 308.525 127.227 308.312C127.572 308.092 127.839 307.791 128.03 307.41C128.228 307.021 128.327 306.581 128.327 306.09C128.327 305.599 128.239 305.155 128.063 304.759C127.887 304.356 127.649 304.015 127.348 303.736C127.055 303.457 126.717 303.252 126.336 303.12L125.951 304.044C126.413 304.22 126.761 304.484 126.996 304.836C127.238 305.188 127.359 305.602 127.359 306.079C127.359 306.372 127.308 306.633 127.205 306.86C127.11 307.08 126.967 307.252 126.776 307.377C126.593 307.494 126.373 307.553 126.116 307.553C125.815 307.553 125.548 307.458 125.313 307.267C125.078 307.076 124.899 306.787 124.774 306.398L124.367 305.023C124.169 304.378 123.887 303.89 123.52 303.56C123.153 303.23 122.699 303.065 122.156 303.065C121.709 303.065 121.313 303.182 120.968 303.417C120.623 303.644 120.352 303.963 120.154 304.374C119.963 304.777 119.868 305.247 119.868 305.782ZM119.868 297.494C119.868 298.073 119.971 298.608 120.176 299.1C120.389 299.584 120.686 300.009 121.067 300.376C121.448 300.735 121.896 301.014 122.409 301.212C122.922 301.41 123.483 301.509 124.092 301.509C124.708 301.509 125.273 301.41 125.786 301.212C126.299 301.014 126.747 300.735 127.128 300.376C127.509 300.016 127.803 299.591 128.008 299.1C128.221 298.608 128.327 298.073 128.327 297.494C128.327 296.929 128.228 296.423 128.03 295.976C127.832 295.521 127.575 295.14 127.26 294.832C126.945 294.516 126.607 294.293 126.248 294.161L125.797 295.151C126.252 295.341 126.618 295.638 126.897 296.042C127.183 296.445 127.326 296.929 127.326 297.494C127.326 298.066 127.19 298.575 126.919 299.023C126.648 299.463 126.27 299.807 125.786 300.057C125.302 300.306 124.737 300.431 124.092 300.431C123.454 300.431 122.893 300.306 122.409 300.057C121.925 299.807 121.547 299.463 121.276 299.023C121.005 298.575 120.869 298.066 120.869 297.494C120.869 296.929 121.008 296.445 121.287 296.042C121.573 295.638 121.943 295.341 122.398 295.151L121.947 294.161C121.588 294.293 121.25 294.516 120.935 294.832C120.62 295.14 120.363 295.521 120.165 295.976C119.967 296.423 119.868 296.929 119.868 297.494ZM120 292.475H128.195V289.582C128.195 289.039 128.092 288.562 127.887 288.152C127.682 287.741 127.388 287.422 127.007 287.195C126.626 286.96 126.178 286.843 125.665 286.843C125.086 286.843 124.594 286.989 124.191 287.283C123.788 287.576 123.498 287.972 123.322 288.471L120 286.568V287.822L123.553 289.824L123.135 289.109V291.397H120V292.475ZM124.125 291.397V289.549C124.125 289.226 124.187 288.944 124.312 288.702C124.437 288.46 124.616 288.273 124.851 288.141C125.086 288.001 125.357 287.932 125.665 287.932C125.98 287.932 126.252 288.001 126.479 288.141C126.714 288.273 126.893 288.46 127.018 288.702C127.143 288.944 127.205 289.226 127.205 289.549V291.397H124.125ZM119.868 281.206C119.868 281.785 119.971 282.328 120.176 282.834C120.389 283.34 120.686 283.783 121.067 284.165C121.448 284.539 121.896 284.832 122.409 285.045C122.93 285.257 123.494 285.364 124.103 285.364C124.719 285.364 125.284 285.257 125.797 285.045C126.31 284.832 126.758 284.539 127.139 284.165C127.52 283.783 127.814 283.343 128.019 282.845C128.224 282.339 128.327 281.792 128.327 281.206C128.327 280.619 128.221 280.076 128.008 279.578C127.803 279.072 127.509 278.632 127.128 278.258C126.754 277.876 126.31 277.579 125.797 277.367C125.284 277.147 124.719 277.037 124.103 277.037C123.494 277.037 122.93 277.147 122.409 277.367C121.896 277.579 121.448 277.876 121.067 278.258C120.686 278.632 120.389 279.072 120.176 279.578C119.971 280.076 119.868 280.619 119.868 281.206ZM120.869 281.206C120.869 280.751 120.95 280.337 121.111 279.963C121.28 279.589 121.511 279.266 121.804 278.995C122.105 278.716 122.449 278.503 122.838 278.357C123.234 278.203 123.656 278.126 124.103 278.126C124.55 278.126 124.968 278.203 125.357 278.357C125.746 278.503 126.087 278.716 126.38 278.995C126.681 279.266 126.912 279.589 127.073 279.963C127.242 280.337 127.326 280.751 127.326 281.206C127.326 281.653 127.242 282.064 127.073 282.438C126.912 282.812 126.681 283.138 126.38 283.417C126.087 283.688 125.746 283.901 125.357 284.055C124.968 284.209 124.55 284.286 124.103 284.286C123.656 284.286 123.234 284.209 122.838 284.055C122.449 283.901 122.105 283.688 121.804 283.417C121.511 283.138 121.28 282.812 121.111 282.438C120.95 282.064 120.869 281.653 120.869 281.206ZM120 275.244H128.195V274.166H120.99V270.569H120V275.244ZM120 269.138H128.195V268.06H120.99L120.99 264.463H120L120 269.138ZM120 260.91H128.195V258.226C128.195 257.397 128.026 256.675 127.689 256.059C127.352 255.443 126.875 254.966 126.259 254.629C125.65 254.291 124.932 254.123 124.103 254.123C123.282 254.123 122.563 254.291 121.947 254.629C121.331 254.966 120.851 255.443 120.506 256.059C120.169 256.675 120 257.397 120 258.226V260.91ZM120.99 259.832V258.215C120.99 257.606 121.118 257.082 121.375 256.642C121.632 256.194 121.991 255.85 122.453 255.608C122.922 255.366 123.472 255.245 124.103 255.245C124.741 255.245 125.291 255.369 125.753 255.619C126.215 255.861 126.571 256.205 126.82 256.653C127.077 257.093 127.205 257.613 127.205 258.215V259.832H120.99ZM119.868 248.62C119.868 249.2 119.971 249.742 120.176 250.248C120.389 250.754 120.686 251.198 121.067 251.579C121.448 251.953 121.896 252.247 122.409 252.459C122.93 252.672 123.494 252.778 124.103 252.778C124.719 252.778 125.284 252.672 125.797 252.459C126.31 252.247 126.758 251.953 127.139 251.579C127.52 251.198 127.814 250.758 128.019 250.259C128.224 249.753 128.327 249.207 128.327 248.62C128.327 248.034 128.221 247.491 128.008 246.992C127.803 246.486 127.509 246.046 127.128 245.672C126.754 245.291 126.31 244.994 125.797 244.781C125.284 244.561 124.719 244.451 124.103 244.451C123.494 244.451 122.93 244.561 122.409 244.781C121.896 244.994 121.448 245.291 121.067 245.672C120.686 246.046 120.389 246.486 120.176 246.992C119.971 247.491 119.868 248.034 119.868 248.62ZM120.869 248.62C120.869 248.166 120.95 247.751 121.111 247.377C121.28 247.003 121.511 246.681 121.804 246.409C122.105 246.131 122.449 245.918 122.838 245.771C123.234 245.617 123.656 245.54 124.103 245.54C124.55 245.54 124.968 245.617 125.357 245.771C125.746 245.918 126.087 246.131 126.38 246.409C126.681 246.681 126.912 247.003 127.073 247.377C127.242 247.751 127.326 248.166 127.326 248.62C127.326 249.068 127.242 249.478 127.073 249.852C126.912 250.226 126.681 250.553 126.38 250.831C126.087 251.103 125.746 251.315 125.357 251.469C124.968 251.623 124.55 251.7 124.103 251.7C123.656 251.7 123.234 251.623 122.838 251.469C122.449 251.315 122.105 251.103 121.804 250.831C121.511 250.553 121.28 250.226 121.111 249.852C120.95 249.478 120.869 249.068 120.869 248.62ZM120 241.367L128.195 243.666V242.533L120.979 240.608V240.872L128.195 238.87V237.737L120.979 235.746V236.021L128.195 234.085V232.952L120 235.251V236.45L127.183 238.452V238.166L120 240.168V241.367ZM120 231.697H128.195L128.195 230.795L121.573 226.087L121.529 226.494H128.195V225.405H120V226.307L126.666 230.993L126.71 230.619H120V231.697Z" fill="#F5F5F5" fill-opacity="0.26"/>
<line y1="-0.5" x2="20" y2="-0.5" transform="matrix(1 0 0 -1 115 178)" stroke="#F5F5F5" stroke-opacity="0.26"/>
</g>
<defs>
<filter id="filter0_f_406_51" x="-428" y="-500" width="1658" height="1674" filterUnits="userSpaceOnUse" color-interpolation-filters="sRGB">
<feFlood flood-opacity="0" result="BackgroundImageFix"/>
<feBlend mode="normal" in="SourceGraphic" in2="BackgroundImageFix" result="shape"/>
<feGaussianBlur stdDeviation="250" result="effect1_foregroundBlur_406_51"/>
</filter>
<filter id="filter1_f_406_51" x="-487" y="401" width="1018" height="1031" filterUnits="userSpaceOnUse" color-interpolation-filters="sRGB">
<feFlood flood-opacity="0" result="BackgroundImageFix"/>
<feBlend mode="normal" in="SourceGraphic" in2="BackgroundImageFix" result="shape"/>
<feGaussianBlur stdDeviation="175" result="effect1_foregroundBlur_406_51"/>
</filter>
<filter id="filter2_f_406_51" x="-326" y="2" width="826" height="832" filterUnits="userSpaceOnUse" color-interpolation-filters="sRGB">
<feFlood flood-opacity="0" result="BackgroundImageFix"/>
<feBlend mode="normal" in="SourceGraphic" in2="BackgroundImageFix" result="shape"/>
<feGaussianBlur stdDeviation="150" result="effect1_foregroundBlur_406_51"/>
</filter>
<filter id="filter3_f_406_51" x="-246" y="339" width="1375" height="1380" filterUnits="userSpaceOnUse" color-interpolation-filters="sRGB">
<feFlood flood-opacity="0" result="BackgroundImageFix"/>
<feBlend mode="normal" in="SourceGraphic" in2="BackgroundImageFix" result="shape"/>
<feGaussianBlur stdDeviation="250" result="effect1_foregroundBlur_406_51"/>
</filter>
<clipPath id="clip0_406_51">
<rect width="1366" height="720" fill="white" transform="matrix(0 -1 -1 0 720 1366)"/>
</clipPath>
</defs>
</svg>
