<svg width="1366" height="720" viewBox="0 0 1366 720" fill="none" xmlns="http://www.w3.org/2000/svg">
<g clip-path="url(#clip0_402_51)">
<rect width="1366" height="720" transform="matrix(-1 0 0 1 1366 0)" fill="white"/>
<g opacity="0.22" filter="url(#filter0_f_402_51)">
<ellipse cx="337" cy="329" rx="337" ry="329" transform="matrix(-1 0 0 1 674 -10)" fill="#0062A9" fill-opacity="0.8"/>
</g>
<g opacity="0.2" filter="url(#filter1_f_402_51)">
<ellipse cx="165.5" cy="159" rx="165.5" ry="159" transform="matrix(-1 0 0 1 1082 539)" fill="#0062A9"/>
</g>
<g opacity="0.4" filter="url(#filter2_f_402_51)">
<ellipse cx="116" cy="113" rx="116" ry="113" transform="matrix(-1 0 0 1 534 520)" fill="#FD8C08"/>
</g>
<g opacity="0.18" filter="url(#filter3_f_402_51)">
<ellipse cx="190" cy="187.5" rx="190" ry="187.5" transform="matrix(-1 0 0 1 1219 91)" fill="#ED8102"/>
</g>
<circle cx="25" cy="25" r="24.5" transform="matrix(-1 0 0 1 203 570)" stroke="#F5F5F5" stroke-opacity="0.26"/>
<path d="M183.833 600.5L178.571 605.5L173 600.5" stroke="#F5F5F5" stroke-opacity="0.26"/>
<path d="M305.782 600.132C306.303 600.132 306.779 600.037 307.212 599.846C307.645 599.648 308.011 599.38 308.312 599.043C308.613 598.706 308.829 598.328 308.961 597.91L308.026 597.525C307.828 598.053 307.535 598.46 307.146 598.746C306.75 599.025 306.288 599.164 305.76 599.164C305.437 599.164 305.155 599.113 304.913 599.01C304.671 598.907 304.484 598.764 304.352 598.581C304.213 598.39 304.143 598.17 304.143 597.921C304.143 597.576 304.242 597.305 304.44 597.107C304.631 596.902 304.913 596.748 305.287 596.645L306.794 596.183C307.388 596 307.843 595.71 308.158 595.314C308.473 594.918 308.631 594.463 308.631 593.95C308.631 593.503 308.525 593.11 308.312 592.773C308.092 592.428 307.791 592.161 307.41 591.97C307.021 591.772 306.581 591.673 306.09 591.673C305.599 591.673 305.155 591.761 304.759 591.937C304.356 592.113 304.015 592.351 303.736 592.652C303.457 592.945 303.252 593.283 303.12 593.664L304.044 594.049C304.22 593.587 304.484 593.239 304.836 593.004C305.188 592.762 305.602 592.641 306.079 592.641C306.372 592.641 306.633 592.692 306.86 592.795C307.08 592.89 307.252 593.033 307.377 593.224C307.494 593.407 307.553 593.627 307.553 593.884C307.553 594.185 307.458 594.452 307.267 594.687C307.076 594.922 306.787 595.101 306.398 595.226L305.023 595.633C304.378 595.831 303.89 596.113 303.56 596.48C303.23 596.847 303.065 597.301 303.065 597.844C303.065 598.291 303.182 598.687 303.417 599.032C303.644 599.377 303.963 599.648 304.374 599.846C304.777 600.037 305.247 600.132 305.782 600.132ZM297.494 600.132C298.073 600.132 298.608 600.029 299.1 599.824C299.584 599.611 300.009 599.314 300.376 598.933C300.735 598.552 301.014 598.104 301.212 597.591C301.41 597.078 301.509 596.517 301.509 595.908C301.509 595.292 301.41 594.727 301.212 594.214C301.014 593.701 300.735 593.253 300.376 592.872C300.016 592.491 299.591 592.197 299.1 591.992C298.608 591.779 298.073 591.673 297.494 591.673C296.929 591.673 296.423 591.772 295.976 591.97C295.521 592.168 295.14 592.425 294.832 592.74C294.516 593.055 294.293 593.393 294.161 593.752L295.151 594.203C295.341 593.748 295.638 593.382 296.042 593.103C296.445 592.817 296.929 592.674 297.494 592.674C298.066 592.674 298.575 592.81 299.023 593.081C299.463 593.352 299.807 593.73 300.057 594.214C300.306 594.698 300.431 595.263 300.431 595.908C300.431 596.546 300.306 597.107 300.057 597.591C299.807 598.075 299.463 598.453 299.023 598.724C298.575 598.995 298.066 599.131 297.494 599.131C296.929 599.131 296.445 598.992 296.042 598.713C295.638 598.427 295.341 598.057 295.151 597.602L294.161 598.053C294.293 598.412 294.516 598.75 294.832 599.065C295.14 599.38 295.521 599.637 295.976 599.835C296.423 600.033 296.929 600.132 297.494 600.132ZM292.475 600V591.805H289.582C289.039 591.805 288.562 591.908 288.152 592.113C287.741 592.318 287.422 592.612 287.195 592.993C286.96 593.374 286.843 593.822 286.843 594.335C286.843 594.914 286.989 595.406 287.283 595.809C287.576 596.212 287.972 596.502 288.471 596.678L286.568 600H287.822L289.824 596.447L289.109 596.865H291.397V600H292.475ZM291.397 595.875H289.549C289.226 595.875 288.944 595.813 288.702 595.688C288.46 595.563 288.273 595.384 288.141 595.149C288.001 594.914 287.932 594.643 287.932 594.335C287.932 594.02 288.001 593.748 288.141 593.521C288.273 593.286 288.46 593.107 288.702 592.982C288.944 592.857 289.226 592.795 289.549 592.795H291.397V595.875ZM281.206 600.132C281.785 600.132 282.328 600.029 282.834 599.824C283.34 599.611 283.783 599.314 284.165 598.933C284.539 598.552 284.832 598.104 285.045 597.591C285.257 597.07 285.364 596.506 285.364 595.897C285.364 595.281 285.257 594.716 285.045 594.203C284.832 593.69 284.539 593.242 284.165 592.861C283.783 592.48 283.343 592.186 282.845 591.981C282.339 591.776 281.792 591.673 281.206 591.673C280.619 591.673 280.076 591.779 279.578 591.992C279.072 592.197 278.632 592.491 278.258 592.872C277.876 593.246 277.579 593.69 277.367 594.203C277.147 594.716 277.037 595.281 277.037 595.897C277.037 596.506 277.147 597.07 277.367 597.591C277.579 598.104 277.876 598.552 278.258 598.933C278.632 599.314 279.072 599.611 279.578 599.824C280.076 600.029 280.619 600.132 281.206 600.132ZM281.206 599.131C280.751 599.131 280.337 599.05 279.963 598.889C279.589 598.72 279.266 598.489 278.995 598.196C278.716 597.895 278.503 597.551 278.357 597.162C278.203 596.766 278.126 596.344 278.126 595.897C278.126 595.45 278.203 595.032 278.357 594.643C278.503 594.254 278.716 593.913 278.995 593.62C279.266 593.319 279.589 593.088 279.963 592.927C280.337 592.758 280.751 592.674 281.206 592.674C281.653 592.674 282.064 592.758 282.438 592.927C282.812 593.088 283.138 593.319 283.417 593.62C283.688 593.913 283.901 594.254 284.055 594.643C284.209 595.032 284.286 595.45 284.286 595.897C284.286 596.344 284.209 596.766 284.055 597.162C283.901 597.551 283.688 597.895 283.417 598.196C283.138 598.489 282.812 598.72 282.438 598.889C282.064 599.05 281.653 599.131 281.206 599.131ZM275.244 600V591.805H274.166V599.01H270.569V600H275.244ZM269.138 600V591.805H268.06V599.01H264.463V600H269.138ZM260.91 600V591.805H258.226C257.397 591.805 256.675 591.974 256.059 592.311C255.443 592.648 254.966 593.125 254.629 593.741C254.291 594.35 254.123 595.068 254.123 595.897C254.123 596.718 254.291 597.437 254.629 598.053C254.966 598.669 255.443 599.149 256.059 599.494C256.675 599.831 257.397 600 258.226 600H260.91ZM259.832 599.01H258.215C257.606 599.01 257.082 598.882 256.642 598.625C256.194 598.368 255.85 598.009 255.608 597.547C255.366 597.078 255.245 596.528 255.245 595.897C255.245 595.259 255.369 594.709 255.619 594.247C255.861 593.785 256.205 593.429 256.653 593.18C257.093 592.923 257.613 592.795 258.215 592.795H259.832V599.01ZM248.62 600.132C249.2 600.132 249.742 600.029 250.248 599.824C250.754 599.611 251.198 599.314 251.579 598.933C251.953 598.552 252.247 598.104 252.459 597.591C252.672 597.07 252.778 596.506 252.778 595.897C252.778 595.281 252.672 594.716 252.459 594.203C252.247 593.69 251.953 593.242 251.579 592.861C251.198 592.48 250.758 592.186 250.259 591.981C249.753 591.776 249.207 591.673 248.62 591.673C248.034 591.673 247.491 591.779 246.992 591.992C246.486 592.197 246.046 592.491 245.672 592.872C245.291 593.246 244.994 593.69 244.781 594.203C244.561 594.716 244.451 595.281 244.451 595.897C244.451 596.506 244.561 597.07 244.781 597.591C244.994 598.104 245.291 598.552 245.672 598.933C246.046 599.314 246.486 599.611 246.992 599.824C247.491 600.029 248.034 600.132 248.62 600.132ZM248.62 599.131C248.166 599.131 247.751 599.05 247.377 598.889C247.003 598.72 246.681 598.489 246.409 598.196C246.131 597.895 245.918 597.551 245.771 597.162C245.617 596.766 245.54 596.344 245.54 595.897C245.54 595.45 245.617 595.032 245.771 594.643C245.918 594.254 246.131 593.913 246.409 593.62C246.681 593.319 247.003 593.088 247.377 592.927C247.751 592.758 248.166 592.674 248.62 592.674C249.068 592.674 249.478 592.758 249.852 592.927C250.226 593.088 250.553 593.319 250.831 593.62C251.103 593.913 251.315 594.254 251.469 594.643C251.623 595.032 251.7 595.45 251.7 595.897C251.7 596.344 251.623 596.766 251.469 597.162C251.315 597.551 251.103 597.895 250.831 598.196C250.553 598.489 250.226 598.72 249.852 598.889C249.478 599.05 249.068 599.131 248.62 599.131ZM241.367 600L243.666 591.805H242.533L240.608 599.021H240.872L238.87 591.805H237.737L235.746 599.021H236.021L234.085 591.805H232.952L235.251 600H236.45L238.452 592.817H238.166L240.168 600H241.367ZM231.697 600V591.805H230.795L226.087 598.427L226.494 598.471V591.805H225.405V600H226.307L230.993 593.334L230.619 593.29V600H231.697Z" fill="#F5F5F5" fill-opacity="0.26"/>
<line y1="-0.5" x2="20" y2="-0.5" transform="matrix(0 -1 -1 0 178 605)" stroke="#F5F5F5" stroke-opacity="0.26"/>
</g>
<defs>
<filter id="filter0_f_402_51" x="-500" y="-510" width="1674" height="1658" filterUnits="userSpaceOnUse" color-interpolation-filters="sRGB">
<feFlood flood-opacity="0" result="BackgroundImageFix"/>
<feBlend mode="normal" in="SourceGraphic" in2="BackgroundImageFix" result="shape"/>
<feGaussianBlur stdDeviation="250" result="effect1_foregroundBlur_402_51"/>
</filter>
<filter id="filter1_f_402_51" x="401" y="189" width="1031" height="1018" filterUnits="userSpaceOnUse" color-interpolation-filters="sRGB">
<feFlood flood-opacity="0" result="BackgroundImageFix"/>
<feBlend mode="normal" in="SourceGraphic" in2="BackgroundImageFix" result="shape"/>
<feGaussianBlur stdDeviation="175" result="effect1_foregroundBlur_402_51"/>
</filter>
<filter id="filter2_f_402_51" x="2" y="220" width="832" height="826" filterUnits="userSpaceOnUse" color-interpolation-filters="sRGB">
<feFlood flood-opacity="0" result="BackgroundImageFix"/>
<feBlend mode="normal" in="SourceGraphic" in2="BackgroundImageFix" result="shape"/>
<feGaussianBlur stdDeviation="150" result="effect1_foregroundBlur_402_51"/>
</filter>
<filter id="filter3_f_402_51" x="339" y="-409" width="1380" height="1375" filterUnits="userSpaceOnUse" color-interpolation-filters="sRGB">
<feFlood flood-opacity="0" result="BackgroundImageFix"/>
<feBlend mode="normal" in="SourceGraphic" in2="BackgroundImageFix" result="shape"/>
<feGaussianBlur stdDeviation="250" result="effect1_foregroundBlur_402_51"/>
</filter>
<clipPath id="clip0_402_51">
<rect width="1366" height="720" fill="white" transform="matrix(-1 0 0 1 1366 0)"/>
</clipPath>
</defs>
</svg>
